HIERARCHY
ROOT Hips
{
  OFFSET 5.72205e-005 65.662 3.42586
  CHANNELS 6 Xposition Yposition Zposition Zrotation Xrotation Yrotation
  JOINT Chest
  {
    OFFSET 0 8.7983 -4.7612
    CHANNELS 6 Xposition Yposition Zposition Zrotation Xrotation Yrotation
    JOINT Chest2
    {
      OFFSET 0 8.0291 0.4195
      CHANNELS 6 Xposition Yposition Zposition Zrotation Xrotation Yrotation
      JOINT Chest3
      {
        OFFSET 0 9.9351 -2.2114
        CHANNELS 6 Xposition Yposition Zposition Zrotation Xrotation Yrotation
        JOINT Neck
        {
          OFFSET 0 22.3885 -0.4656
          CHANNELS 6 Xposition Yposition Zposition Zrotation Xrotation Yrotation
          JOINT Head
          {
            OFFSET -0.0001 12.643 3.4389
            CHANNELS 6 Xposition Yposition Zposition Zrotation Xrotation Yrotation
            End Site
            {
              OFFSET 0.0001 17.6655 0.5274
            }
          }
        }
        JOINT LeftCollar
        {
          OFFSET 2.2603 21.606 7.4023
          CHANNELS 6 Xposition Yposition Zposition Zrotation Xrotation Yrotation
          JOINT LeftShoulder
          {
            OFFSET 13.5163 -1.1332 -5.0146
            CHANNELS 6 Xposition Yposition Zposition Zrotation Xrotation Yrotation
            JOINT LeftElbow
            {
              OFFSET -0.0995 -28.05 -0.2431
              CHANNELS 6 Xposition Yposition Zposition Zrotation Xrotation Yrotation
              JOINT LeftWrist
              {
                OFFSET 0.0679 -23.3996 -0.1402
                CHANNELS 6 Xposition Yposition Zposition Zrotation Xrotation Yrotation
                JOINT LeftFinger1
                {
                  OFFSET 0.7932 -9.069 2.5189
                  CHANNELS 6 Xposition Yposition Zposition Zrotation Xrotation Yrotation
                  JOINT LeftFinger11
                  {
                    OFFSET -0.8272 -3.3923 0.5977
                    CHANNELS 6 Xposition Yposition Zposition Zrotation Xrotation Yrotation
                    JOINT LeftFinger12
                    {
                      OFFSET -0.5649 -2.3158 0.4082
                      CHANNELS 6 Xposition Yposition Zposition Zrotation Xrotation Yrotation
                      End Site
                      {
                        OFFSET -0.4919 -1.6479 0.2673
                      }
                    }
                  }
                }
                JOINT LeftFinger2
                {
                  OFFSET 0.9159 -9.2044 0.2193
                  CHANNELS 6 Xposition Yposition Zposition Zrotation Xrotation Yrotation
                  JOINT LeftFinger21
                  {
                    OFFSET 0.0117 -4.1944 -0.0248
                    CHANNELS 6 Xposition Yposition Zposition Zrotation Xrotation Yrotation
                    JOINT LeftFinger22
                    {
                      OFFSET 0.0071 -2.3249 -0.0142
                      CHANNELS 6 Xposition Yposition Zposition Zrotation Xrotation Yrotation
                      End Site
                      {
                        OFFSET -0.1475 -2.0882 0.0028
                      }
                    }
                  }
                }
                JOINT LeftFinger3
                {
                  OFFSET 0.6113 -8.7231 -2.0637
                  CHANNELS 6 Xposition Yposition Zposition Zrotation Xrotation Yrotation
                  JOINT LeftFinger31
                  {
                    OFFSET -0.1927 -3.8059 -0.2383
                    CHANNELS 6 Xposition Yposition Zposition Zrotation Xrotation Yrotation
                    JOINT LeftFinger32
                    {
                      OFFSET -0.1091 -2.1688 -0.1362
                      CHANNELS 6 Xposition Yposition Zposition Zrotation Xrotation Yrotation
                      End Site
                      {
                        OFFSET -0.2358 -1.9176 -0.0906
                      }
                    }
                  }
                }
                JOINT LeftFinger4
                {
                  OFFSET -0.6151 -8.0947 -3.5641
                  CHANNELS 6 Xposition Yposition Zposition Zrotation Xrotation Yrotation
                  JOINT LeftFinger41
                  {
                    OFFSET -0.4882 -2.341 -0.6462
                    CHANNELS 6 Xposition Yposition Zposition Zrotation Xrotation Yrotation
                    JOINT LeftFinger42
                    {
                      OFFSET -0.3575 -1.7167 -0.4742
                      CHANNELS 6 Xposition Yposition Zposition Zrotation Xrotation Yrotation
                      End Site
                      {
                        OFFSET -0.4187 -1.5237 -0.3496
                      }
                    }
                  }
                }
                JOINT LeftFinger0
                {
                  OFFSET -1.42 -1.8761 1.4223
                  CHANNELS 6 Xposition Yposition Zposition Zrotation Xrotation Yrotation
                  JOINT LeftFinger01
                  {
                    OFFSET -1.1471 -3.4929 2.6334
                    CHANNELS 6 Xposition Yposition Zposition Zrotation Xrotation Yrotation
                    JOINT LeftFinger02
                    {
                      OFFSET -0.823 -2.3 1.6571
                      CHANNELS 6 Xposition Yposition Zposition Zrotation Xrotation Yrotation
                      End Site
                      {
                        OFFSET -0.5822 -1.6914 1.1582
                      }
                    }
                  }
                }
              }
            }
          }
        }
        JOINT RightCollar
        {
          OFFSET -2.2603 21.606 7.4023
          CHANNELS 6 Xposition Yposition Zposition Zrotation Xrotation Yrotation
          JOINT RightShoulder
          {
            OFFSET -13.5187 -1.1334 -5.0155
            CHANNELS 6 Xposition Yposition Zposition Zrotation Xrotation Yrotation
            JOINT RightElbow
            {
              OFFSET 0.0994 -28.0499 -0.2431
              CHANNELS 6 Xposition Yposition Zposition Zrotation Xrotation Yrotation
              JOINT RightWrist
              {
                OFFSET -0.0679 -23.3996 -0.1402
                CHANNELS 6 Xposition Yposition Zposition Zrotation Xrotation Yrotation
                JOINT RightFinger1
                {
                  OFFSET -0.7932 -9.0691 2.5189
                  CHANNELS 6 Xposition Yposition Zposition Zrotation Xrotation Yrotation
                  JOINT RightFinger11
                  {
                    OFFSET 0.8272 -3.3923 0.5977
                    CHANNELS 6 Xposition Yposition Zposition Zrotation Xrotation Yrotation
                    JOINT RightFinger12
                    {
                      OFFSET 0.565 -2.3158 0.4082
                      CHANNELS 6 Xposition Yposition Zposition Zrotation Xrotation Yrotation
                      End Site
                      {
                        OFFSET 0.4919 -1.6479 0.2673
                      }
                    }
                  }
                }
                JOINT RightFinger2
                {
                  OFFSET -0.916 -9.2044 0.2193
                  CHANNELS 6 Xposition Yposition Zposition Zrotation Xrotation Yrotation
                  JOINT RightFinger21
                  {
                    OFFSET -0.0117 -4.1944 -0.0248
                    CHANNELS 6 Xposition Yposition Zposition Zrotation Xrotation Yrotation
                    JOINT RightFinger22
                    {
                      OFFSET -0.0071 -2.3249 -0.0142
                      CHANNELS 6 Xposition Yposition Zposition Zrotation Xrotation Yrotation
                      End Site
                      {
                        OFFSET 0.1475 -2.0882 0.0028
                      }
                    }
                  }
                }
                JOINT RightFinger3
                {
                  OFFSET -0.6113 -8.7231 -2.0637
                  CHANNELS 6 Xposition Yposition Zposition Zrotation Xrotation Yrotation
                  JOINT RightFinger31
                  {
                    OFFSET 0.1927 -3.8059 -0.2383
                    CHANNELS 6 Xposition Yposition Zposition Zrotation Xrotation Yrotation
                    JOINT RightFinger32
                    {
                      OFFSET 0.1091 -2.1688 -0.1362
                      CHANNELS 6 Xposition Yposition Zposition Zrotation Xrotation Yrotation
                      End Site
                      {
                        OFFSET 0.2358 -1.9176 -0.0906
                      }
                    }
                  }
                }
                JOINT RightFinger4
                {
                  OFFSET 0.6151 -8.0947 -3.564
                  CHANNELS 6 Xposition Yposition Zposition Zrotation Xrotation Yrotation
                  JOINT RightFinger41
                  {
                    OFFSET 0.4882 -2.341 -0.6462
                    CHANNELS 6 Xposition Yposition Zposition Zrotation Xrotation Yrotation
                    JOINT RightFinger42
                    {
                      OFFSET 0.3574 -1.7166 -0.4742
                      CHANNELS 6 Xposition Yposition Zposition Zrotation Xrotation Yrotation
                      End Site
                      {
                        OFFSET 0.4187 -1.5237 -0.3496
                      }
                    }
                  }
                }
                JOINT RightFinger0
                {
                  OFFSET 1.4199 -1.8761 1.4221
                  CHANNELS 6 Xposition Yposition Zposition Zrotation Xrotation Yrotation
                  JOINT RightFinger01
                  {
                    OFFSET 1.1472 -3.4929 2.6336
                    CHANNELS 6 Xposition Yposition Zposition Zrotation Xrotation Yrotation
                    JOINT RightFinger02
                    {
                      OFFSET 0.8229 -2.3 1.6571
                      CHANNELS 6 Xposition Yposition Zposition Zrotation Xrotation Yrotation
                      End Site
                      {
                        OFFSET 0.5822 -1.6914 1.1582
                      }
                    }
                  }
                }
              }
            }
          }
        }
      }
    }
  }
  JOINT RightHip
  {
    OFFSET -9.412 3.9771 -0.7758
    CHANNELS 6 Xposition Yposition Zposition Zrotation Xrotation Yrotation
    JOINT RightKnee
    {
      OFFSET -0.7531 -40.938 0
      CHANNELS 6 Xposition Yposition Zposition Zrotation Xrotation Yrotation
      JOINT RightAnkle
      {
        OFFSET 0 -40.1986 0
        CHANNELS 6 Xposition Yposition Zposition Zrotation Xrotation Yrotation
        JOINT RightToe
        {
          OFFSET 0 -4.4182 9.239
          CHANNELS 6 Xposition Yposition Zposition Zrotation Xrotation Yrotation
          End Site
          {
            OFFSET 0 0 6.1981
          }
        }
      }
    }
  }
  JOINT LeftHip
  {
    OFFSET 9.4119 3.9773 -0.7758
    CHANNELS 6 Xposition Yposition Zposition Zrotation Xrotation Yrotation
    JOINT LeftKnee
    {
      OFFSET 0.7532 -40.9383 0
      CHANNELS 6 Xposition Yposition Zposition Zrotation Xrotation Yrotation
      JOINT LeftAnkle
      {
        OFFSET 0 -40.1986 0
        CHANNELS 6 Xposition Yposition Zposition Zrotation Xrotation Yrotation
        JOINT LeftToe
        {
          OFFSET 0 -4.4182 9.239
          CHANNELS 6 Xposition Yposition Zposition Zrotation Xrotation Yrotation
          End Site
          {
            OFFSET 0 0 6.1981
          }
        }
      }
    }
  }
}
MOTION
Frames:	4
Frame Time:	0.0333333
56.3722 -0.911575 -9.29179 -179.727 86.4608 179.472 0 8.7983 -4.7612 -0.415017 -8.40762 -0.0304996 7.10543e-015 8.0291 0.4195 -0.848571 -16.8148 -0.12541 7.10543e-015 9.9351 -2.2114 -0.848574 -16.8149 -0.125411 0 22.3885 -0.4656 0.224833 -5.80429 -21.4957 -0.0001 12.643 3.4389 20.6867 0.0539008 -1.69687 2.2603 21.606 7.4023 -8.00266 -0.194412 -12.5027 13.5163 -1.1332 -5.0146 57.5438 -46.7981 23.2327 -0.0995 -28.05 -0.2431 -4.64142 -73.4581 -22.8438 0.0679 -23.3996 -0.1402 15.4937 -1.10436 -24.0204 0.7932 -9.069 2.5189 -5.1553e-032 -3.97569e-016 -7.42958e-015 -0.8272 -3.3923 0.5977 7.95139e-016 0 -7.42958e-015 -0.5649 -2.3158 0.4082 7.95139e-016 -3.97569e-016 -4.37326e-015 0.9159 -9.2044 0.2193 -5.1553e-032 -3.97569e-016 -7.42958e-015 0.0117 -4.1944 -0.0248 -0.0128267 0.002308 8.00626e-005 0.0071 -2.3249 -0.0142 7.95139e-016 1.19271e-015 5.8393e-015 0.6113 -8.7231 -2.0637 -5.1553e-032 -3.97569e-016 -7.42958e-015 -0.1927 -3.8059 -0.2383 -0.0160683 0.0029717 0.000849565 -0.1091 -2.1688 -0.1362 -7.95139e-016 1.19271e-015 -6.03808e-015 -0.6151 -8.0947 -3.5641 -5.1553e-032 -3.97569e-016 -7.42958e-015 -0.4882 -2.341 -0.6462 -0.0125155 0.00310257 0.00281054 -0.3575 -1.7167 -0.4742 5.276e-032 -3.97569e-016 7.60351e-015 -1.42 -1.8761 1.4223 -5.1553e-032 -3.97569e-016 -7.42958e-015 -1.1471 -3.4929 2.6334 7.95139e-016 0 -7.42958e-015 -0.823 -2.3 1.6571 7.95139e-016 -3.97569e-016 -4.37326e-015 -2.2603 21.606 7.4023 7.13352 -0.0287934 7.03348 -13.5187 -1.1334 -5.0155 -54.2715 -49.9476 -19.4392 0.0994001 -28.0499 -0.2431 -68.0734 -70.6158 -28.777 -0.0679 -23.3996 -0.1402 15.8837 10.7719 -0.605922 -0.7932 -9.0691 2.5189 4.79018e-007 -8.46018e-006 3.31726e-006 0.8272 -3.3923 0.5977 -3.18055e-015 -1.59028e-015 7.95139e-016 0.565 -2.3158 0.4082 -3.31043e-032 -7.95139e-016 -2.38542e-015 -0.916 -9.2044 0.2193 4.79018e-007 -8.46018e-006 3.31726e-006 -0.0117 -4.1944 -0.0248 0.0129732 0.00232341 -8.273e-005 -0.0071 -2.3249 -0.0142 -6.34499e-032 -7.95139e-016 -4.57205e-015 -0.6113 -8.7231 -2.0637 4.79018e-007 -8.46018e-006 3.31726e-006 0.1927 -3.8059 -0.2383 0.0163481 0.00305627 -0.000880853 0.1091 -2.1688 -0.1362 2.75869e-032 7.95139e-016 -1.98785e-015 0.6151 -8.0947 -3.564 4.79018e-007 -8.46018e-006 3.31726e-006 0.4882 -2.341 -0.6462 0.0145522 0.0036804 -0.00325758 0.3574 -1.7166 -0.4742 -3.18055e-015 7.95139e-016 4.77083e-015 1.4199 -1.8761 1.4221 4.79018e-007 -8.46018e-006 3.31726e-006 1.1472 -3.4929 2.6336 -3.18055e-015 -1.59028e-015 7.95139e-016 0.8229 -2.3 1.6571 -3.31043e-032 -7.95139e-016 -2.38542e-015 -9.412 3.9771 -0.7758 -1.53053 -2.80894 -3.51307 -0.7531 -40.938 -4.44089e-016 75.8606 80.5686 -88.9584 7.10543e-015 -40.1986 1.42109e-014 -12.0185 11.7925 -3.96445 0 -4.4182 9.239 7.95139e-016 2.70347e-014 -0 9.4119 3.9773 -0.7758 1.84838 -2.27585 2.77487 0.7532 -40.9383 -4.44089e-016 -102.108 79.9325 99.5873 0 -40.1986 -7.10543e-015 16.5177 3.32623 15.199 0 -4.4182 9.239 -4.23342e-007 5.45627e-007 -3.59143e-008 
56.3692 -0.910194 -9.29059 -179.727 86.4608 179.472 0 8.7983 -4.7612 -0.415016 -8.40762 -0.0304995 7.10543e-015 8.0291 0.4195 -0.848571 -16.8148 -0.12541 -7.10543e-015 9.9351 -2.2114 -0.848574 -16.8149 -0.125411 7.10543e-015 22.3885 -0.4656 0.240789 -5.69429 -21.0852 -0.0001 12.643 3.4389 20.2934 0.0577948 -1.66899 2.2603 21.606 7.4023 -8.00266 -0.194418 -12.5027 13.5163 -1.1332 -5.0146 57.5438 -46.7982 23.2327 -0.0995 -28.05 -0.2431 -3.38547 -73.5813 -22.0126 0.0679 -23.3996 -0.1402 15.0802 -0.972676 -23.5772 0.7932 -9.069 2.5189 -1.98785e-015 -3.97569e-016 3.97569e-016 -0.8272 -3.3923 0.5977 -3.97569e-016 -3.97569e-016 4.96962e-016 -0.5649 -2.3158 0.4082 -3.97569e-016 1.19271e-015 3.70236e-015 0.9159 -9.2044 0.2193 -1.98785e-015 -3.97569e-016 3.97569e-016 0.0117 -4.1944 -0.0248 -0.0128377 0.00231854 7.70742e-005 0.0071 -2.3249 -0.0142 -3.97569e-016 -3.97569e-016 -1.66482e-015 0.6113 -8.7231 -2.0637 -1.98785e-015 -3.97569e-016 3.97569e-016 -0.1927 -3.8059 -0.2383 -0.0160441 0.00299128 0.000846624 -0.1091 -2.1688 -0.1362 -7.95139e-016 -1.19271e-015 -5.31749e-015 -0.6151 -8.0947 -3.5641 -1.98785e-015 -3.97569e-016 3.97569e-016 -0.4882 -2.341 -0.6462 -0.0125777 0.00311553 0.00281745 -0.3575 -1.7167 -0.4742 3.97569e-016 3.97569e-016 8.79622e-015 -1.42 -1.8761 1.4223 -1.98785e-015 -3.97569e-016 3.97569e-016 -1.1471 -3.4929 2.6334 -3.97569e-016 -3.97569e-016 4.96962e-016 -0.823 -2.3 1.6571 -3.97569e-016 1.19271e-015 3.70236e-015 -2.2603 21.606 7.4023 7.13352 -0.0287998 7.03348 -13.5187 -1.1334 -5.0155 -54.2715 -49.9475 -19.4391 0.0994 -28.0499 -0.2431 -68.0735 -70.6158 -28.7771 -0.0679 -23.3996 -0.1402 15.8837 10.7719 -0.605926 -0.7932 -9.0691 2.5189 3.03456e-032 -7.95139e-016 2.18663e-015 0.8272 -3.3923 0.5977 3.31043e-032 -7.95139e-016 2.38542e-015 0.565 -2.3158 0.4082 -3.18055e-015 -1.59028e-015 -7.95139e-015 -0.916 -9.2044 0.2193 3.03456e-032 -7.95139e-016 2.18663e-015 -0.0117 -4.1944 -0.0248 0.0129833 0.00231597 -8.467e-005 -0.0071 -2.3249 -0.0142 -4.13804e-032 7.95139e-016 2.98177e-015 -0.6113 -8.7231 -2.0637 3.03456e-032 -7.95139e-016 2.18663e-015 0.1927 -3.8059 -0.2383 0.0163136 0.00304311 -0.000875094 0.1091 -2.1688 -0.1362 -9.54166e-015 1.59028e-015 5.56597e-015 0.6151 -8.0947 -3.564 3.03456e-032 -7.95139e-016 2.18663e-015 0.4882 -2.341 -0.6462 0.0145277 0.00367104 -0.00325687 0.3574 -1.7166 -0.4742 -3.18055e-015 -7.95139e-016 4.17448e-015 1.4199 -1.8761 1.4221 3.03456e-032 -7.95139e-016 2.18663e-015 1.1472 -3.4929 2.6336 3.31043e-032 -7.95139e-016 2.38542e-015 0.8229 -2.3 1.6571 -3.18055e-015 -1.59028e-015 -7.95139e-015 -9.412 3.9771 -0.7758 -1.5224 -2.80498 -3.51648 -0.7531 -40.938 0 76.0513 80.4954 -89.1513 0 -40.1986 0 -12.0219 11.7918 -3.96351 0 -4.4182 9.239 -7.95139e-016 -3.18055e-015 3.18055e-015 9.4119 3.9773 -0.7758 1.82193 -2.24648 2.78873 0.7532 -40.9383 0 -103.106 79.6174 100.631 0 -40.1986 0 16.5141 3.30415 15.2027 0 -4.4182 9.239 -2.18663e-015 -8.63607e-007 -0 
56.3661 -0.908829 -9.2894 -179.727 86.4608 179.472 -7.10543e-015 8.7983 -4.7612 -0.415016 -8.40762 -0.0304995 0 8.0291 0.4195 -0.848571 -16.8148 -0.12541 -7.10543e-015 9.9351 -2.2114 -0.848574 -16.8149 -0.125411 0 22.3885 -0.4656 0.255961 -5.58411 -20.6747 -0.0001 12.643 3.4389 19.9 0.0614647 -1.64108 2.2603 21.606 7.4023 -8.00266 -0.194418 -12.5027 13.5163 -1.1332 -5.0146 57.5438 -46.7981 23.2326 -0.0995 -28.05 -0.2431 -2.11314 -73.6994 -21.1653 0.0679 -23.3996 -0.1402 14.6652 -0.844051 -23.1325 0.7932 -9.069 2.5189 -3.97569e-016 1.23246e-014 6.68413e-015 -0.8272 -3.3923 0.5977 -3.97569e-016 1.19271e-014 9.19379e-015 -0.5649 -2.3158 0.4082 -1.12762e-030 1.19271e-014 5.41688e-015 0.9159 -9.2044 0.2193 -3.97569e-016 1.23246e-014 6.68413e-015 0.0117 -4.1944 -0.0248 -0.0128128 0.00231826 8.81374e-005 0.0071 -2.3249 -0.0142 -3.97569e-016 3.97569e-016 2.80783e-015 0.6113 -8.7231 -2.0637 -3.97569e-016 1.23246e-014 6.68413e-015 -0.1927 -3.8059 -0.2383 -0.0160496 0.0029832 0.000850939 -0.1091 -2.1688 -0.1362 7.95139e-016 1.59028e-015 -6.41081e-015 -0.6151 -8.0947 -3.5641 -3.97569e-016 1.23246e-014 6.68413e-015 -0.4882 -2.341 -0.6462 -0.0125753 0.00311759 0.00282227 -0.3575 -1.7167 -0.4742 7.95139e-016 -7.95139e-016 -2.21148e-015 -1.42 -1.8761 1.4223 -3.97569e-016 1.23246e-014 6.68413e-015 -1.1471 -3.4929 2.6334 -3.97569e-016 1.19271e-014 9.19379e-015 -0.823 -2.3 1.6571 -1.12762e-030 1.19271e-014 5.41688e-015 -2.2603 21.606 7.4023 7.13352 -0.0287998 7.03348 -13.5187 -1.1334 -5.0155 -54.2715 -49.9475 -19.4391 0.0994 -28.0499 -0.2431 -68.0735 -70.6158 -28.7771 -0.0679 -23.3996 -0.1402 15.8837 10.7719 -0.605926 -0.7932 -9.0691 2.5189 3.03456e-032 -7.95139e-016 2.18663e-015 0.8272 -3.3923 0.5977 3.31043e-032 -7.95139e-016 2.38542e-015 0.565 -2.3158 0.4082 -3.18055e-015 -1.59028e-015 -7.95139e-015 -0.916 -9.2044 0.2193 3.03456e-032 -7.95139e-016 2.18663e-015 -0.0117 -4.1944 -0.0248 0.0129833 0.00231597 -8.467e-005 -0.0071 -2.3249 -0.0142 -4.13804e-032 7.95139e-016 2.98177e-015 -0.6113 -8.7231 -2.0637 3.03456e-032 -7.95139e-016 2.18663e-015 0.1927 -3.8059 -0.2383 0.0163136 0.00304311 -0.000875094 0.1091 -2.1688 -0.1362 -9.54166e-015 1.59028e-015 5.56597e-015 0.6151 -8.0947 -3.564 3.03456e-032 -7.95139e-016 2.18663e-015 0.4882 -2.341 -0.6462 0.0145277 0.00367104 -0.00325687 0.3574 -1.7166 -0.4742 -3.18055e-015 -7.95139e-016 4.17448e-015 1.4199 -1.8761 1.4221 3.03456e-032 -7.95139e-016 2.18663e-015 1.1472 -3.4929 2.6336 3.31043e-032 -7.95139e-016 2.38542e-015 0.8229 -2.3 1.6571 -3.18055e-015 -1.59028e-015 -7.95139e-015 -9.412 3.9771 -0.7758 -1.51422 -2.80105 -3.51985 -0.7531 -40.938 4.44089e-016 76.2385 80.4222 -89.3408 0 -40.1986 7.10543e-015 -12.0253 11.7912 -3.96258 0 -4.4182 9.239 9.19727e-007 -2.37362e-006 7.66103e-007 9.4119 3.9773 -0.7758 1.7951 -2.21764 2.80264 0.7532 -40.9383 4.44089e-016 -104.047 79.2991 101.618 0 -40.1986 7.10543e-015 16.5103 3.28196 15.2066 0 -4.4182 9.239 -9.74756e-008 -8.46853e-007 8.22831e-007 
56.363 -0.907494 -9.28823 -179.727 86.4608 179.472 -7.10543e-015 8.7983 -4.7612 -0.415017 -8.40762 -0.0304996 -7.10543e-015 8.0291 0.4195 -0.848571 -16.8148 -0.12541 7.10543e-015 9.9351 -2.2114 -0.848574 -16.8149 -0.125411 -7.10543e-015 22.3885 -0.4656 0.27034 -5.47376 -20.264 -0.0001 12.643 3.4389 19.5063 0.0649606 -1.61311 2.2603 21.606 7.4023 -8.00266 -0.194412 -12.5027 13.5163 -1.1332 -5.0146 57.5438 -46.7981 23.2327 -0.0995 -28.05 -0.2431 -0.824758 -73.8122 -20.3021 0.0679 -23.3996 -0.1402 14.2487 -0.718524 -22.6864 0.7932 -9.069 2.5189 -1.59028e-015 7.95139e-016 -1.07344e-014 -0.8272 -3.3923 0.5977 -1.59028e-015 0 -7.50412e-015 -0.5649 -2.3158 0.4082 -1.59028e-015 0 -1.37658e-014 0.9159 -9.2044 0.2193 -1.59028e-015 7.95139e-016 -1.07344e-014 0.0117 -4.1944 -0.0248 -0.0128084 0.00232358 8.29552e-005 0.0071 -2.3249 -0.0142 -2.06902e-032 1.19271e-015 9.93923e-016 0.6113 -8.7231 -2.0637 -1.59028e-015 7.95139e-016 -1.07344e-014 -0.1927 -3.8059 -0.2383 -0.0160716 0.00301144 0.000862566 -0.1091 -2.1688 -0.1362 2.1104e-031 -1.59028e-015 7.60351e-015 -0.6151 -8.0947 -3.5641 -1.59028e-015 7.95139e-016 -1.07344e-014 -0.4882 -2.341 -0.6462 -0.012646 0.00314785 0.0028445 -0.3575 -1.7167 -0.4742 3.97569e-016 -3.97569e-016 1.88845e-015 -1.42 -1.8761 1.4223 -1.59028e-015 7.95139e-016 -1.07344e-014 -1.1471 -3.4929 2.6334 -1.59028e-015 0 -7.50412e-015 -0.823 -2.3 1.6571 -1.59028e-015 0 -1.37658e-014 -2.2603 21.606 7.4023 7.13352 -0.0287936 7.03348 -13.5187 -1.1334 -5.0155 -54.2715 -49.9475 -19.4391 0.0994001 -28.0499 -0.2431 -68.0734 -70.6158 -28.777 -0.0679 -23.3996 -0.1402 15.8837 10.7719 -0.605914 -0.7932 -9.0691 2.5189 -3.18055e-015 -7.95139e-016 -1.78906e-015 0.8272 -3.3923 0.5977 3.18055e-015 0 -1.98785e-015 0.565 -2.3158 0.4082 3.18055e-015 0 4.37326e-015 -0.916 -9.2044 0.2193 -3.18055e-015 -7.95139e-016 -1.78906e-015 -0.0117 -4.1944 -0.0248 0.0129773 0.00233173 -8.68871e-005 -0.0071 -2.3249 -0.0142 -1.15865e-031 1.59028e-015 4.17448e-015 -0.6113 -8.7231 -2.0637 -3.18055e-015 -7.95139e-016 -1.78906e-015 0.1927 -3.8059 -0.2383 0.0163323 0.00304512 -0.000876024 0.1091 -2.1688 -0.1362 3.18055e-015 2.38542e-015 -1.39149e-015 0.6151 -8.0947 -3.564 -3.18055e-015 -7.95139e-016 -1.78906e-015 0.4882 -2.341 -0.6462 0.0145356 0.00367979 -0.00325316 0.3574 -1.7166 -0.4742 6.36111e-015 7.95139e-016 1.98785e-015 1.4199 -1.8761 1.4221 -3.18055e-015 -7.95139e-016 -1.78906e-015 1.1472 -3.4929 2.6336 3.18055e-015 0 -1.98785e-015 0.8229 -2.3 1.6571 3.18055e-015 0 4.37326e-015 -9.412 3.9771 -0.7758 -1.50607 -2.79739 -3.52326 -0.7531 -40.938 0 76.4251 80.3489 -89.5297 7.10543e-015 -40.1986 0 -12.0287 11.7905 -3.96167 0 -4.4182 9.239 -4.59117e-007 1.58927e-006 -1.77259e-006 9.4119 3.9773 -0.7758 1.76801 -2.18514 2.81663 0.7532 -40.9383 0 -104.914 78.9791 102.53 0 -40.1986 7.10543e-015 16.5063 3.25966 15.2106 7.10543e-015 -4.4182 9.239 -1.19271e-015 7.95139e-016 -0 
